<svg width="50" height="50" viewBox="0 0 50 50" fill="none" xmlns="http://www.w3.org/2000/svg">
<path d="M45.354 11.9167C44.9117 11.6955 44.7207 12.1171 44.4623 12.3314C44.3742 12.4006 44.2991 12.4904 44.2239 12.5734C43.5775 13.2784 42.8224 13.7416 41.8347 13.6863C40.3917 13.6033 39.1596 14.0665 38.0708 15.1932C37.8393 13.8038 37.0702 12.9743 35.8995 12.442C35.286 12.1656 34.6673 11.889 34.2378 11.2876C33.9389 10.8591 33.8576 10.3821 33.7073 9.91207C33.6123 9.62864 33.5172 9.33833 33.1975 9.28992C32.8493 9.23461 32.7136 9.53187 32.5771 9.78072C32.0327 10.7969 31.821 11.9167 31.8426 13.0503C31.8893 15.6011 32.9452 17.6334 35.0414 19.0781C35.2799 19.244 35.3413 19.4099 35.2661 19.6518C35.1235 20.1495 34.9524 20.6334 34.803 21.1311C34.7078 21.4491 34.5653 21.5182 34.2309 21.3799C33.0808 20.8891 32.0871 20.1633 31.2084 19.2855C29.7179 17.8131 28.3699 16.1886 26.6893 14.9167C26.3003 14.6233 25.9005 14.3443 25.4909 14.0803C23.7757 12.3798 25.7155 10.9835 26.1649 10.8176C26.634 10.6448 26.3282 10.0503 24.81 10.0572C23.2919 10.0641 21.9033 10.5826 20.1337 11.2738C19.8745 11.3775 19.6022 11.4535 19.324 11.5158C17.7169 11.2047 16.0492 11.1356 14.3064 11.336C11.0256 11.7093 8.4048 13.2923 6.47797 15.9951C4.16399 19.244 3.61874 22.9353 4.28668 26.7855C4.98658 30.8432 7.01623 34.2027 10.1338 36.8295C13.3672 39.553 17.0904 40.8871 21.3382 40.6314C23.9183 40.4793 26.7904 40.1268 30.0307 37.3272C30.8481 37.7419 31.7061 37.9078 33.1284 38.0322C34.2249 38.1359 35.2799 37.9769 36.0965 37.8041C37.3762 37.5276 37.2871 36.3179 36.8249 36.0967C33.0739 34.3133 33.8974 35.0391 33.1491 34.4516C35.0552 32.1497 37.9274 29.7579 39.0507 22.009C39.1397 21.3938 39.0645 21.0067 39.0507 20.509C39.0438 20.2048 39.1112 20.0873 39.4525 20.0528C40.3917 19.9421 41.3042 19.6795 42.1415 19.2094C44.5712 17.8546 45.5519 15.6287 45.7835 12.9605C45.8181 12.5526 45.7766 12.131 45.354 11.9167ZM24.1766 35.9308C20.5424 33.0137 18.7788 32.0529 18.0504 32.0944C17.3695 32.1358 17.4922 32.9308 17.6417 33.4492C17.7981 33.9608 18.0029 34.3133 18.2888 34.7626C18.4859 35.0599 18.6224 35.5023 18.091 35.8341C16.9202 36.5737 14.8853 35.5852 14.7903 35.5368C12.421 34.1128 10.4397 32.2326 9.04421 29.6612C7.6963 27.1865 6.91432 24.5321 6.78469 21.6979C6.75012 21.0136 6.94799 20.7716 7.61422 20.6472C8.49159 20.4762 9.39133 20.4529 10.2764 20.5781C13.9867 21.1311 17.1457 22.8247 19.7932 25.5068C21.3045 27.0344 22.4476 28.8593 23.6262 30.6428C24.8783 32.5368 26.2262 34.341 27.9414 35.8202C28.5471 36.3387 29.0301 36.7327 29.4932 37.023C28.0978 37.182 25.7691 37.2165 24.1766 35.9308ZM25.9194 24.4906C25.9194 24.1864 26.158 23.9445 26.4578 23.9445C26.5257 23.9456 26.5868 23.9572 26.6409 23.979C26.7441 24.0187 26.8327 24.089 26.8948 24.1804C26.9569 24.2718 26.9895 24.3801 26.9883 24.4906C26.9892 24.5618 26.976 24.6325 26.9494 24.6987C26.9229 24.7648 26.8835 24.8249 26.8335 24.8757C26.7835 24.9265 26.724 24.9669 26.6583 24.9945C26.5926 25.0221 26.5221 25.0365 26.4509 25.0367C26.3799 25.0365 26.3097 25.0221 26.2443 24.9944C26.179 24.9667 26.1198 24.9262 26.0703 24.8754C26.0208 24.8245 25.982 24.7643 25.9561 24.6982C25.9302 24.6321 25.9177 24.5615 25.9194 24.4906ZM31.3311 27.3247C30.9846 27.4699 30.6373 27.5943 30.3029 27.6081C29.7862 27.6358 29.2211 27.4215 28.9152 27.1588C28.4382 26.751 28.0977 26.5228 27.9552 25.8109C27.8938 25.5067 27.9275 25.0367 27.982 24.7671C28.1047 24.1864 27.9682 23.8132 27.5672 23.4745C27.2406 23.1979 26.825 23.1219 26.3688 23.1219C26.1985 23.1219 26.0422 23.0459 25.9264 22.9836C25.87 22.9567 25.8198 22.9183 25.7789 22.871C25.7381 22.8237 25.7074 22.7684 25.6889 22.7087C25.6704 22.649 25.6645 22.5861 25.6714 22.524C25.6784 22.4619 25.6981 22.4019 25.7294 22.3477C25.7769 22.2509 26.0085 22.0159 26.0629 21.9744C26.6824 21.615 27.397 21.7325 28.0571 22.0021C28.6698 22.2578 29.1321 22.7279 29.8 23.3915C30.4809 24.1934 30.6036 24.4146 30.9906 25.016C31.2974 25.486 31.5765 25.9699 31.7666 26.5229C31.8832 26.8685 31.7329 27.1519 31.3311 27.3247Z" fill="#4D6BFE"/>
</svg>
