<svg width="50" height="50" viewBox="0 0 50 50" fill="none" xmlns="http://www.w3.org/2000/svg">
<path d="M14.728 15.9082H10.2926C10.0708 15.9082 9.84901 15.9082 9.62723 16.13L7.40949 20.3437C7.18772 20.5655 7.18772 21.009 7.40949 21.2308L17.1675 38.3073H22.0466L29.1433 32.3195L14.728 15.9082Z" fill="#615CED"/>
<path d="M11.847 29.2135L9.62922 32.9836C9.40745 33.2054 9.40745 33.649 9.62922 33.8707L12.0687 38.0844C12.2905 38.3062 12.5123 38.3062 12.9558 38.3062H22.0485L11.847 29.2135ZM38.0163 20.7861L40.234 17.0159C40.4558 16.7942 40.4558 16.3506 40.234 16.1288L37.7945 11.9151C37.5727 11.6934 37.3509 11.6934 36.9074 11.6934H17.1695L14.73 15.6853L16.5042 24.9998L38.0163 20.7861Z" fill="#615CED"/>
<path d="M27.8141 11.6932L25.5964 7.92304C25.5964 7.47949 25.1529 7.47949 24.9311 7.47949H20.0521C19.8303 7.47949 19.3867 7.70127 19.3867 7.92304L17.169 11.6932L14.7295 15.6851L27.8141 11.6932ZM22.048 38.306L24.2658 42.0762C24.4875 42.298 24.7093 42.5197 24.9311 42.5197H29.8101C30.0319 42.5197 30.4754 42.298 30.4754 42.0762L40.4552 24.9996L38.0157 20.7859L29.1448 17.6811L22.048 38.306Z" fill="#615CED"/>
<path d="M35.1318 34.0926H39.5673C39.7891 34.0926 40.2326 33.8708 40.2326 33.649L42.6721 29.4353C42.8939 29.2135 42.8939 28.77 42.6721 28.5482L40.4544 24.9998L38.0149 20.7861L35.1318 34.0926Z" fill="#615CED"/>
<path d="M22.4914 37.6416H12.9551L15.3946 33.4279H20.2737L10.5156 16.7949H15.3946L24.9309 33.4279L22.4914 37.6416Z" fill="white"/>
<path d="M15.1719 16.7946L20.0509 8.36719L22.4904 12.5809L20.0509 16.5728H39.3452L36.9057 20.7865H17.6114L15.1719 16.7946ZM36.9057 20.7865L41.7847 29.2139H36.9057L34.4662 25.0002L24.9299 41.6332L22.4904 37.4195L32.0267 20.7865H36.9057Z" fill="white"/>
<path d="M24.9308 33.4272L32.0276 20.7861H17.6123L24.9308 33.4272Z" fill="#605BEC"/>
<path d="M24.9299 33.4283L15.1719 16.7953L15.6154 15.9082L25.3735 32.5412L24.9299 33.4283Z" fill="#605BEC"/>
<path d="M17.6123 20.7861H36.9066L37.3502 21.6732H18.2776L17.6123 20.7861Z" fill="#605BEC"/>
<path d="M32.2495 20.7861L22.7133 37.4192H21.8262L31.3624 20.7861H32.2495Z" fill="#605BEC"/>
</svg>
